<svg width="45" height="44" viewBox="0 0 45 44" fill="none" xmlns="http://www.w3.org/2000/svg">
<rect width="45" height="44" rx="22" fill="url(#paint0_linear_2016_23)"/>
<path d="M29.0455 13.2V11H15.9545V13.2H10.5V18.7H11.5909V20.9H12.6818V22H13.7727V23.1H14.8636V24.2H15.9545V25.3H19.2273V26.4H21.4091V29.7H17.0455V33H27.9545V29.7H23.5909V26.4H25.7727V25.3H29.0455V24.2H30.1364V23.1H31.2273V22H32.3182V20.9H33.4091V18.7H34.5V13.2H29.0455ZM14.8636 22V20.9H13.7727V18.7H12.6818V15.4H14.8636V16.5H15.9545V18.7H17.0455V22H18.1364V23.1H15.9545V22H14.8636ZM32.3182 18.7H31.2273V20.9H30.1364V22H29.0455V23.1H26.8636V22H27.9545V19.8H29.0455V16.5H30.1364V15.4H32.3182V18.7Z" fill="white"/>
<path d="M25 17.4318V17.8409H24.7955V18.0455H24.5909V18.25H24.3864V18.4545H24.1818V18.6591H23.9773V19.6818H24.1818V20.5H23.7727V20.2955H23.3636V20.0909H22.9545V19.8864H22.5455V20.0909H22.1364V20.2955H21.7273V20.5H21.3182V19.6818H21.5227V18.6591H21.3182V18.4545H21.1136V18.25H20.9091V18.0455H20.7045V17.8409H20.5V17.4318H21.9318V17.0227H22.1364V16.6136H22.3409V16.2045H22.5455V16H22.9545V16.2045H23.1591V16.6136H23.3636V17.0227H23.5682V17.4318H25Z" fill="#FF814F"/>
<defs>
<linearGradient id="paint0_linear_2016_23" x1="7.65" y1="7.04" x2="37.5059" y2="40.2686" gradientUnits="userSpaceOnUse">
<stop stop-color="#FF9A7B"/>
<stop offset="1" stop-color="#FF5C03"/>
</linearGradient>
</defs>
</svg>
