<svg width="186" height="65" viewBox="0 0 186 65" fill="none" xmlns="http://www.w3.org/2000/svg">
<g clip-path="url(#clip0_2011_98)">
<g filter="url(#filter0_f_2011_98)">
<path d="M37.2217 62.3371C37.2217 62.9256 31.9737 63.4027 25.5 63.4027C19.0263 63.4027 13.7783 62.9256 13.7783 62.3371C13.7783 61.7486 19.0263 61.2715 25.5 61.2715C31.9737 61.2715 37.2217 61.7486 37.2217 62.3371Z" fill="#FF551F"/>
</g>
<path d="M23.255 58.6754C6.72357 34.7097 3.65503 32.25 3.65503 23.4423C3.65503 11.3775 13.4353 1.59717 25.5 1.59717C37.5647 1.59717 47.345 11.3775 47.345 23.4423C47.345 32.25 44.2765 34.7097 27.7451 58.6754C26.6602 60.2426 24.3398 60.2425 23.255 58.6754Z" fill="url(#paint0_linear_2011_98)"/>
<ellipse cx="25.5" cy="22.3762" rx="15.4513" ry="15.4513" fill="white"/>
<path d="M31.4115 14.0497C31.632 13.8924 31.9042 13.8249 32.1727 13.8611C32.4412 13.8973 32.6858 14.0344 32.8568 14.2445C33.0279 14.4546 33.1124 14.722 33.0934 14.9922C33.0743 15.2624 32.953 15.5153 32.7541 15.6993L32.6497 15.7835L30.4109 17.383C30.0892 17.6118 29.8389 17.9272 29.6892 18.2926C29.5394 18.6579 29.4963 19.0582 29.5648 19.447L29.5989 19.609L33.1612 16.0467C33.353 15.8556 33.6103 15.7446 33.8809 15.7363C34.1515 15.7281 34.4151 15.8231 34.6182 16.0022C34.8213 16.1812 34.9486 16.4309 34.9742 16.7004C34.9999 16.9699 34.922 17.2391 34.7564 17.4533L34.668 17.5534L31.1056 21.1158C31.8569 21.3076 32.6881 21.0732 33.2219 20.4444L33.3317 20.3038L34.9312 18.0649C35.089 17.8453 35.3244 17.6938 35.5897 17.6413C35.855 17.5888 36.1304 17.6391 36.36 17.7821C36.5896 17.9251 36.7562 18.15 36.8261 18.4113C36.896 18.6726 36.8639 18.9507 36.7363 19.1892L36.6649 19.3032L35.0665 21.5431C34.4746 22.3706 33.6044 22.957 32.6153 23.195C31.6262 23.433 30.5844 23.3066 29.6809 22.8389L29.4891 22.7323L27.0414 25.179L31.4712 29.6098C31.6546 29.7933 31.7648 30.0374 31.7811 30.2964C31.7974 30.5553 31.7186 30.8113 31.5596 31.0164L31.4712 31.1165C31.2877 31.3 31.0435 31.4102 30.7846 31.4265C30.5256 31.4428 30.2696 31.364 30.0645 31.205L29.9644 31.1165L25.5346 26.6857L21.1049 31.1165C20.9214 31.3 20.6773 31.4102 20.4183 31.4265C20.1593 31.4428 19.9033 31.364 19.6983 31.205L19.5981 31.1165C19.4147 30.933 19.3044 30.6889 19.2882 30.4299C19.2719 30.171 19.3506 29.915 19.5097 29.7099L19.5981 29.6098L24.0279 25.179L22.3122 23.4633C21.861 23.7075 21.3735 23.8777 20.8683 23.9674L20.6019 24.0068C19.9644 24.0873 19.3168 24.0186 18.7104 23.8059C18.104 23.5932 17.5554 23.2425 17.1078 22.7813C16.1178 21.7903 15.552 20.5446 15.4113 19.3479C15.2728 18.1704 15.5392 16.9088 16.4024 16.0467C17.2644 15.1835 18.5251 14.9171 19.7026 15.0557C20.8992 15.1974 22.146 15.7632 23.136 16.7532C23.5969 17.2006 23.9476 17.7491 24.1603 18.3553C24.3729 18.9615 24.4418 19.6089 24.3614 20.2462C24.2975 20.7844 24.1408 21.2948 23.9288 21.7392L23.8179 21.9566L25.5336 23.6722L27.9823 21.2255C27.4696 20.3493 27.2891 19.3178 27.4738 18.3195C27.6585 17.3212 28.196 16.4226 28.9883 15.7877L29.1716 15.6492L31.4115 14.0497Z" fill="url(#paint1_linear_2011_98)"/>
<path d="M61.72 18.5H81.4V23.02H67.12V30.14H77.8V34.5H67.12V46.5H61.72V18.5ZM94.2319 46.78C92.2852 46.78 90.5519 46.3667 89.0319 45.54C87.5119 44.6867 86.3119 43.5 85.4319 41.98C84.5785 40.4333 84.1519 38.62 84.1519 36.54C84.1519 34.4333 84.5919 32.6067 85.4719 31.06C86.3785 29.5133 87.6052 28.3267 89.1519 27.5C90.6985 26.6467 92.4319 26.22 94.3519 26.22C96.2719 26.22 98.0052 26.6467 99.5519 27.5C101.099 28.3267 102.325 29.5133 103.232 31.06C104.139 32.58 104.592 34.38 104.592 36.46C104.592 38.5667 104.125 40.3933 103.192 41.94C102.285 43.4867 101.045 44.6867 99.4719 45.54C97.9252 46.3667 96.1785 46.78 94.2319 46.78ZM94.1919 42.18C95.0185 42.18 95.8052 41.98 96.5519 41.58C97.2985 41.1533 97.9119 40.5267 98.3919 39.7C98.8719 38.8467 99.1119 37.7667 99.1119 36.46C99.1119 35.2067 98.8852 34.1667 98.4319 33.34C97.9785 32.4867 97.3785 31.86 96.6319 31.46C95.9119 31.0333 95.1252 30.82 94.2719 30.82C93.4452 30.82 92.6719 31.0333 91.9519 31.46C91.2585 31.86 90.6985 32.4867 90.2719 33.34C89.8719 34.1667 89.6719 35.2333 89.6719 36.54C89.6719 37.7933 89.8719 38.8467 90.2719 39.7C90.6719 40.5267 91.2185 41.1533 91.9119 41.58C92.6052 41.98 93.3652 42.18 94.1919 42.18ZM117.591 46.78C115.645 46.78 113.911 46.3667 112.391 45.54C110.871 44.6867 109.671 43.5 108.791 41.98C107.938 40.4333 107.511 38.62 107.511 36.54C107.511 34.4333 107.951 32.6067 108.831 31.06C109.738 29.5133 110.965 28.3267 112.511 27.5C114.058 26.6467 115.791 26.22 117.711 26.22C119.631 26.22 121.365 26.6467 122.911 27.5C124.458 28.3267 125.685 29.5133 126.591 31.06C127.498 32.58 127.951 34.38 127.951 36.46C127.951 38.5667 127.485 40.3933 126.551 41.94C125.645 43.4867 124.405 44.6867 122.831 45.54C121.285 46.3667 119.538 46.78 117.591 46.78ZM117.551 42.18C118.378 42.18 119.165 41.98 119.911 41.58C120.658 41.1533 121.271 40.5267 121.751 39.7C122.231 38.8467 122.471 37.7667 122.471 36.46C122.471 35.2067 122.245 34.1667 121.791 33.34C121.338 32.4867 120.738 31.86 119.991 31.46C119.271 31.0333 118.485 30.82 117.631 30.82C116.805 30.82 116.031 31.0333 115.311 31.46C114.618 31.86 114.058 32.4867 113.631 33.34C113.231 34.1667 113.031 35.2333 113.031 36.54C113.031 37.7933 113.231 38.8467 113.631 39.7C114.031 40.5267 114.578 41.1533 115.271 41.58C115.965 41.98 116.725 42.18 117.551 42.18ZM146.391 29.5L145.751 29.58V17.7H150.871V46.5H146.231L145.911 44.02C145.271 44.7667 144.417 45.42 143.351 45.98C142.311 46.5133 141.097 46.78 139.711 46.78C137.977 46.78 136.444 46.3533 135.111 45.5C133.777 44.6467 132.737 43.46 131.991 41.94C131.244 40.3933 130.871 38.58 130.871 36.5C130.871 34.42 131.244 32.6067 131.991 31.06C132.737 29.5133 133.777 28.3267 135.111 27.5C136.444 26.6467 137.977 26.22 139.711 26.22C141.284 26.22 142.631 26.54 143.751 27.18C144.897 27.82 145.777 28.5933 146.391 29.5ZM136.391 36.5C136.391 38.18 136.817 39.54 137.671 40.58C138.524 41.5933 139.644 42.1 141.031 42.1C141.884 42.1 142.657 41.8867 143.351 41.46C144.071 41.0067 144.644 40.3667 145.071 39.54C145.524 38.7133 145.751 37.7 145.751 36.5C145.751 35.3 145.524 34.2867 145.071 33.46C144.644 32.6333 144.071 32.0067 143.351 31.58C142.657 31.1267 141.884 30.9 141.031 30.9C139.644 30.9 138.524 31.42 137.671 32.46C136.817 33.4733 136.391 34.82 136.391 36.5Z" fill="#FF6A3B"/>
<path d="M156.457 26.5H161.577V46.5H156.457V26.5ZM159.057 23.94C158.097 23.94 157.31 23.6467 156.697 23.06C156.084 22.4467 155.777 21.7 155.777 20.82C155.777 19.94 156.084 19.2067 156.697 18.62C157.31 18.0067 158.097 17.7 159.057 17.7C159.964 17.7 160.724 18.0067 161.337 18.62C161.977 19.2067 162.297 19.94 162.297 20.82C162.297 21.7 161.977 22.4467 161.337 23.06C160.724 23.6467 159.964 23.94 159.057 23.94ZM178.943 46.5L178.543 44.06C177.876 44.8867 177.116 45.54 176.263 46.02C175.436 46.5 174.316 46.74 172.903 46.74C171.57 46.74 170.396 46.5133 169.383 46.06C168.396 45.58 167.623 44.9267 167.063 44.1C166.503 43.2467 166.223 42.2467 166.223 41.1C166.223 39.42 166.823 38.0333 168.023 36.94C169.25 35.82 171.09 35.1133 173.543 34.82L178.543 34.26V32.86C178.543 32.3 178.29 31.78 177.783 31.3C177.276 30.82 176.476 30.58 175.383 30.58C174.423 30.58 173.583 30.82 172.863 31.3C172.17 31.7533 171.703 32.4467 171.463 33.38L167.063 31.78C167.596 29.9933 168.61 28.62 170.103 27.66C171.596 26.7 173.436 26.22 175.623 26.22C178.29 26.22 180.29 26.8867 181.623 28.22C182.983 29.5267 183.663 31.26 183.663 33.42V46.5H178.943ZM178.543 37.82L174.223 38.38C173.343 38.4867 172.676 38.7533 172.223 39.18C171.77 39.58 171.543 40.0733 171.543 40.66C171.543 41.22 171.77 41.7 172.223 42.1C172.676 42.4733 173.316 42.66 174.143 42.66C175.076 42.66 175.863 42.4867 176.503 42.14C177.17 41.7933 177.676 41.2867 178.023 40.62C178.37 39.9533 178.543 39.1267 178.543 38.14V37.82Z" fill="#521D02"/>
</g>
<defs>
<filter id="filter0_f_2011_98" x="6.33712" y="53.8303" width="38.3258" height="17.0138" filterUnits="userSpaceOnUse" color-interpolation-filters="sRGB">
<feFlood flood-opacity="0" result="BackgroundImageFix"/>
<feBlend mode="normal" in="SourceGraphic" in2="BackgroundImageFix" result="shape"/>
<feGaussianBlur stdDeviation="3.7206" result="effect1_foregroundBlur_2011_98"/>
</filter>
<linearGradient id="paint0_linear_2011_98" x1="25.5" y1="1.59717" x2="25.5" y2="59.8508" gradientUnits="userSpaceOnUse">
<stop stop-color="#FF845D"/>
<stop offset="1" stop-color="#FF531C"/>
</linearGradient>
<linearGradient id="paint1_linear_2011_98" x1="26.1195" y1="13.8516" x2="26.1195" y2="31.4286" gradientUnits="userSpaceOnUse">
<stop stop-color="#FF8B67"/>
<stop offset="1" stop-color="#FF6332"/>
</linearGradient>
<clipPath id="clip0_2011_98">
<rect width="186" height="65" rx="23.0769" fill="white"/>
</clipPath>
</defs>
</svg>
