<svg width="43" height="27" viewBox="0 0 43 27" fill="none" xmlns="http://www.w3.org/2000/svg">
<path d="M28.7507 11.5003C31.9324 11.5003 34.4817 8.93188 34.4817 5.75014C34.4817 2.5684 31.9324 0 28.7507 0C25.569 0 23.0006 2.5684 23.0006 5.75014C23.0006 8.93188 25.569 11.5003 28.7507 11.5003ZM13.417 11.5003C16.5987 11.5003 19.148 8.93188 19.148 5.75014C19.148 2.5684 16.5987 0 13.417 0C10.2352 0 7.66685 2.5684 7.66685 5.75014C7.66685 8.93188 10.2352 11.5003 13.417 11.5003ZM13.417 15.3337C8.95105 15.3337 0 17.5763 0 22.0422V24.9173C0 25.9715 0.862521 26.834 1.91671 26.834H24.9173C25.9715 26.834 26.834 25.9715 26.834 24.9173V22.0422C26.834 17.5763 17.8829 15.3337 13.417 15.3337ZM28.7507 15.3337C28.1949 15.3337 27.5623 15.372 26.8915 15.4295C26.9298 15.4487 26.949 15.487 26.9682 15.5062C29.1532 17.0971 30.6674 19.2246 30.6674 22.0422V24.9173C30.6674 25.5881 30.5332 26.2398 30.3224 26.834H40.251C41.3052 26.834 42.1677 25.9715 42.1677 24.9173V22.0422C42.1677 17.5763 33.2166 15.3337 28.7507 15.3337Z" fill="white"/>
</svg>
